# xmcd
#
# Track frame offsets:
#       151
#       12208
#       30551
#       43950
#       55740
#       75351
#       92621
#       112932
#       127568
#
# Disc length: 1924 seconds
#
# Revision: 0
# Processed by: cddbd v1.5.1PL0 Copyright (c) Steve Scherf et al.
# Submitted via: CD-DA_X-Tractor v0.24
#
DISCID=59078209
DTITLE=Dennis Gilley and The Milestone Band - Dennis Gilley and The Milestone Band
DYEAR=1900
DGENRE=Country
TTITLE0=Big Blue Diamonds
TTITLE1=Still Loving You
TTITLE2=Country Boy Traveling Blue
TTITLE3=Matilda - Live
TTITLE4=I Want To Dance With You To A Song That Never Ends
TTITLE5=Take My Heart
TTITLE6=High Heel Sneekers
TTITLE7=Night Thing
TTITLE8=Wasn't That A Party
EXTD=
EXTT0=
EXTT1=
EXTT2=
EXTT3=
EXTT4=
EXTT5=
EXTT6=
EXTT7=
EXTT8=
PLAYORDER=
